# xmcd
#
# Track frame offsets:
#	150
#	21310
#	45414
#	71198
#	92870
#	115950
#	134198
#	147806
#	171734
#	179454
#	179904
#	180354
#
# Disc length: 2408 seconds
#
# Revision: 0
# Processed by: cddbd v1.5.1PL2 Copyright (c) Steve Scherf et al.
# Submitted via: audiograbber 1.83.01
#
DISCID=be09660c
DTITLE=Blues Traveler - Four
DYEAR=1994
DGENRE=Pop
TTITLE0=Run-around
TTITLE1=Stand
TTITLE2=Look Around
TTITLE3=Fallible
TTITLE4=The Mountains Win Again
TTITLE5=Freedom
TTITLE6=Crash Burn
TTITLE7=Price To Pay
TTITLE8=Hook
TTITLE9=The Good, The Bad, And The Ugly
TTITLE10=Just Wait
TTITLE11=Brother John
EXTD=
EXTT0=
EXTT1=
EXTT2=
EXTT3=
EXTT4=
EXTT5=
EXTT6=
EXTT7=
EXTT8=
EXTT9=
EXTT10=
EXTT11=
PLAYORDER=
